<svg xmlns="http://www.w3.org/2000/svg" xmlns:xlink="http://www.w3.org/1999/xlink" class="{{ with .class }}{{ . }} {{ end }} icon icon-youtube" width="26px" height="16px" version="1.1" viewBox="0 0 34.2 24"><g id="surface1"><path style=" stroke:none;fill-rule:nonzero;fill:rgb(100%,100%,100%);fill-opacity:1;" d="M 17.097656 0 C 17.097656 0 6.394531 0 3.71875 0.707031 C 2.28125 1.101562 1.097656 2.289062 0.703125 3.753906 C 0 6.4375 0 12 0 12 C 0 12 0 17.589844 0.703125 20.246094 C 1.097656 21.710938 2.253906 22.871094 3.71875 23.265625 C 6.421875 24 17.097656 24 17.097656 24 C 17.097656 24 27.804688 24 30.480469 23.292969 C 31.945312 22.898438 33.097656 21.742188 33.492188 20.273438 C 34.199219 17.589844 34.199219 12.027344 34.199219 12.027344 C 34.199219 12.027344 34.226562 6.4375 33.492188 3.753906 C 33.097656 2.289062 31.945312 1.128906 30.480469 0.734375 C 27.804688 0 17.097656 0 17.097656 0 Z M 13.691406 6.863281 L 22.589844 12 L 13.691406 17.136719 Z M 13.691406 6.863281 "></path></g></svg>